<svg width="23" height="23" viewBox="0 0 23 23" fill="none" xmlns="http://www.w3.org/2000/svg">
<rect width="23" height="23" rx="2.65385" fill="white"/>
<path d="M17.3231 8.53846H15.3345C15.016 7.98646 14.5772 7.51231 14.0465 7.15138L15.2 5.99785L14.2022 5L12.6665 6.53569C12.3409 6.45785 12.0083 6.41538 11.6615 6.41538C11.3148 6.41538 10.9822 6.45785 10.6637 6.53569L9.12092 5L8.12308 5.99785L9.26954 7.15138C8.74585 7.51231 8.30708 7.98646 7.98862 8.53846H6V9.95385H7.47908C7.44369 10.1874 7.41538 10.4209 7.41538 10.6615V11.3692H6V12.7846H7.41538V13.4923C7.41538 13.7329 7.44369 13.9665 7.47908 14.2H6V15.6154H7.98862C8.72462 16.8822 10.0905 17.7385 11.6615 17.7385C13.2326 17.7385 14.5985 16.8822 15.3345 15.6154H17.3231V14.2H15.844C15.8794 13.9665 15.9077 13.7329 15.9077 13.4923V12.7846H17.3231V11.3692H15.9077V10.6615C15.9077 10.4209 15.8794 10.1874 15.844 9.95385H17.3231V8.53846ZM13.0769 14.2H10.2462V12.7846H13.0769V14.2ZM13.0769 11.3692H10.2462V9.95385H13.0769V11.3692Z" fill="#744848"/>
</svg>
