<svg width="529" height="443" viewBox="0 0 529 443" fill="none" xmlns="http://www.w3.org/2000/svg">
<rect width="529" height="443" rx="50" fill="#574F5A"/>
<ellipse cx="264.5" cy="221.5" rx="114.5" ry="157.5" fill="white"/>
<rect x="416.492" y="97" width="20.5426" height="75.0774" transform="rotate(62.3311 416.492 97)" fill="white"/>
<rect x="440.328" y="139.205" width="20.5426" height="47.4252" transform="rotate(150.325 440.328 139.205)" fill="white"/>
<rect x="438.573" y="194.611" width="20.5426" height="75.0774" transform="rotate(82.2113 438.573 194.611)" fill="white"/>
<rect x="446.636" y="242.407" width="20.5426" height="47.4252" transform="rotate(170.205 446.636 242.407)" fill="white"/>
<rect x="398.706" y="357.335" width="20.5426" height="75.0774" transform="rotate(121.366 398.706 357.335)" fill="white"/>
<rect x="374.78" y="399.489" width="20.5426" height="47.4252" transform="rotate(-150.64 374.78 399.489)" fill="white"/>
<rect width="20.5424" height="75.0771" transform="matrix(-0.464366 0.885642 0.885649 0.464357 112.389 92.7019)" fill="white"/>
<rect width="20.5425" height="47.4247" transform="matrix(0.868853 0.49507 0.495081 -0.868847 88.5537 134.907)" fill="white"/>
<rect width="20.5424" height="75.077" transform="matrix(-0.135521 0.99077 0.990779 0.135519 90.3096 190.311)" fill="white"/>
<rect width="20.5425" height="47.4248" transform="matrix(0.985429 0.170114 0.170117 -0.98542 82.2466 238.106)" fill="white"/>
<rect width="20.5425" height="75.0767" transform="matrix(0.520501 0.853855 0.853871 -0.520495 127.175 355.714)" fill="white"/>
<rect width="20.5424" height="47.425" transform="matrix(0.871565 -0.49029 -0.490295 -0.87155 151.101 397.867)" fill="white"/>
</svg>
