<svg width="100" height="100" viewBox="0 0 100 100" fill="none" xmlns="http://www.w3.org/2000/svg">
<rect width="100" height="100" rx="5" fill="#574F5A"/>
<ellipse cx="50.0001" cy="50" rx="21.6446" ry="35.553" fill="white"/>
<rect width="4.48532" height="14.8298" rx="2.24266" transform="matrix(0.402033 0.915625 -0.847577 0.530673 78.7319 21.8961)" fill="white"/>
<rect width="4.08096" height="10.3061" rx="2.04048" transform="matrix(-0.826764 0.562549 -0.430655 -0.902516 83.2378 31.4233)" fill="white"/>
<rect width="4.43798" height="15.0188" rx="2.21899" transform="matrix(0.118582 1.03524 -0.936252 0.152923 82.9058 43.9303)" fill="white"/>
<rect width="4.12709" height="10.2077" rx="2.06355" transform="matrix(-0.92721 0.191139 -0.149406 -1.03347 84.4302 54.7193)" fill="white"/>
<rect width="4.44556" height="14.9888" rx="2.22278" transform="matrix(-0.454665 0.890662 -0.808488 -0.588513 75.3696 80.6625)" fill="white"/>
<rect width="4.07725" height="10.3139" rx="2.03863" transform="matrix(-0.830095 -0.557621 0.426171 -0.904642 70.8472 90.1781)" fill="white"/>
<rect width="4.48527" height="14.8297" rx="2.24264" transform="matrix(-0.402038 0.915622 0.84758 0.530668 21.2456 20.9259)" fill="white"/>
<rect width="4.08094" height="10.306" rx="2.04047" transform="matrix(0.826768 0.562544 0.43066 -0.902514 16.7397 30.453)" fill="white"/>
<rect width="4.62437" height="14.2477" rx="2.31218" transform="matrix(-0.113802 0.993499 0.986927 0.161198 17.0718 42.9597)" fill="white"/>
<rect width="3.90713" height="10.659" rx="1.95356" transform="matrix(0.979411 0.201898 0.143081 -0.989707 15.5474 53.7486)" fill="white"/>
<rect width="4.44553" height="14.9887" rx="2.22277" transform="matrix(0.454668 0.890655 0.808496 -0.588511 24.0405 80.2965)" fill="white"/>
<rect width="4.07721" height="10.3139" rx="2.03861" transform="matrix(0.830103 -0.557619 -0.426174 -0.904635 28.5635 89.812)" fill="white"/>
</svg>
