<svg width="13" height="12" viewBox="0 0 13 12" fill="none" xmlns="http://www.w3.org/2000/svg">
<path d="M8.97917 7.33333H8.41958L8.22125 7.15333C8.91542 6.39333 9.33333 5.40667 9.33333 4.33333C9.33333 1.94 7.27208 0 4.72917 0C2.18625 0 0.125 1.94 0.125 4.33333C0.125 6.72667 2.18625 8.66667 4.72917 8.66667C5.86958 8.66667 6.91792 8.27333 7.72542 7.62L7.91667 7.80667V8.33333L11.4583 11.66L12.5138 10.6667L8.97917 7.33333V7.33333ZM4.72917 7.33333C2.96542 7.33333 1.54167 5.99333 1.54167 4.33333C1.54167 2.67333 2.96542 1.33333 4.72917 1.33333C6.49292 1.33333 7.91667 2.67333 7.91667 4.33333C7.91667 5.99333 6.49292 7.33333 4.72917 7.33333Z" fill="#989898"/>
</svg>
